<svg width="24" height="24" viewBox="0 0 24 24" fill="none" xmlns="http://www.w3.org/2000/svg">
    <circle cx="12" cy="12" r="10" fill="#90CAF9" stroke="#1E88E5" stroke-width="2"/>
    <path d="M8 10c1-1 3-1 4 0s1 2 3 2 2 1 2 2-1 2-3 2-2-1-4-1-3-2-2-3z" fill="#66BB6A"/>
    <path d="M12 4c0.5 1 1.5 2 2 2.5s0 1.5-1 1.5-2-1-2-2 .5-2 1-2z" fill="#66BB6A"/>
    <path d="M6 13c1 0 1 1 2 1s1 1 0 2-2 0-2-1 .5-2 0-2z" fill="#66BB6A"/>
    <ellipse cx="12" cy="12" rx="10" ry="10" stroke="#0D47A1" stroke-width="0.5" fill="none"/>
</svg>
